<?xml version="1.0" standalone="no"?>
<!DOCTYPE svg PUBLIC "-//W3C//DTD SVG 20010904//EN"
 "http://www.w3.org/TR/2001/REC-SVG-20010904/DTD/svg10.dtd">
<svg version="1.0" xmlns="http://www.w3.org/2000/svg"
 width="588.000000pt" height="883.000000pt" viewBox="0 0 588.000000 883.000000"
 preserveAspectRatio="xMidYMid meet">

<g transform="translate(0.000000,883.000000) scale(0.100000,-0.100000)"
fill="#000000" stroke="none">
<path d="M1525 7870 l-1380 -949 -3 -125 c-1 -69 0 -126 4 -126 3 0 242 162
531 360 288 198 526 360 529 360 2 0 3 -89 2 -197 l-3 -197 -530 -363 -530
-364 -3 -126 c-2 -109 -1 -125 13 -119 8 3 243 162 523 354 279 191 513 352
520 356 9 6 12 -35 11 -191 l0 -198 -535 -365 -534 -365 3 -1280 c3 -1272 3
-1281 25 -1419 123 -757 494 -1375 1102 -1833 361 -272 796 -449 1275 -520
152 -22 571 -25 715 -5 510 72 933 245 1335 546 157 118 423 383 538 538 332
444 517 942 557 1493 6 82 10 627 10 1306 0 1098 -1 1167 -17 1181 -10 8 -253
176 -540 373 l-523 358 0 194 c0 106 3 193 6 193 4 0 242 -162 531 -360 288
-198 528 -360 533 -360 6 0 10 50 10 120 l0 119 -52 39 c-29 21 -272 188 -540
372 l-488 334 0 199 0 198 63 -43 c34 -23 271 -186 527 -361 256 -176 471
-322 478 -324 9 -4 12 24 12 119 l0 125 -1382 948 c-760 521 -1389 949 -1397
951 -9 1 -637 -424 -1396 -946z m1285 423 l-1 -198 -510 -348 -510 -349 -92
63 c-50 35 -115 80 -144 99 l-51 37 651 446 c358 246 652 447 654 447 2 0 3
-89 3 -197z m865 -243 c347 -237 636 -437 643 -445 11 -10 -11 -29 -128 -110
l-142 -97 -57 39 c-31 21 -262 180 -513 352 l-458 314 0 195 c0 151 3 193 13
189 6 -2 296 -199 642 -437z m-865 -407 l-1 -198 -272 -186 -272 -186 -142 96
c-78 53 -142 98 -142 101 0 4 819 569 827 570 1 0 2 -89 2 -197z m630 -84
c226 -155 410 -285 410 -289 0 -9 -271 -196 -280 -193 -4 1 -129 86 -278 188
l-272 186 0 195 c0 107 2 194 5 194 3 0 190 -127 415 -281z m-1208 -714 c273
-187 496 -343 495 -347 -4 -16 -281 -199 -293 -194 -7 3 -238 161 -514 352
l-500 348 0 198 0 199 158 -108 c87 -59 381 -261 654 -448z m2176 348 l-3
-198 -500 -347 c-275 -191 -504 -348 -508 -348 -11 0 -287 190 -287 198 0 8
1280 890 1293 891 4 1 6 -88 5 -196z m-1600 -367 l-3 -125 -177 121 -177 122
67 46 c37 26 117 81 177 122 l110 76 3 -118 c1 -66 1 -175 0 -244z m401 240
c142 -97 170 -121 159 -131 -19 -18 -335 -235 -342 -235 -3 0 -6 111 -6 246 0
135 4 244 8 242 4 -1 86 -56 181 -122z m-1387 -598 c216 -149 401 -278 411
-287 16 -16 9 -22 -117 -109 -74 -51 -137 -92 -140 -92 -3 0 -130 86 -281 191
l-275 190 0 190 c0 104 2 189 5 189 3 0 182 -122 397 -272z m2588 80 l-1 -193
-267 -185 c-146 -101 -273 -184 -282 -184 -17 0 -270 171 -270 182 1 6 808
570 818 572 1 0 2 -87 2 -192z m-745 -687 l740 -509 3 -966 2 -966 -1495 0
-1495 0 0 963 0 962 747 513 c411 281 750 512 753 512 3 -1 338 -230 745 -509z
m-2047 106 l173 -119 -182 -124 c-99 -68 -183 -124 -185 -124 -2 0 -4 113 -4
251 0 197 3 249 13 243 6 -4 90 -61 185 -127z m2790 -241 l-3 -124 -177 122
c-110 75 -173 125 -167 130 5 6 84 62 176 126 l168 117 3 -124 c1 -68 1 -179
0 -247z m-3176 -2681 c56 -286 145 -499 298 -718 83 -118 278 -313 400 -399
107 -76 315 -183 435 -223 817 -275 1698 88 2083 860 58 117 112 270 144 410
l22 100 3 1508 c2 829 7 1507 11 1506 4 0 77 -49 162 -108 l155 -108 3 -1294
c2 -884 -1 -1335 -8 -1424 -62 -727 -490 -1350 -1142 -1665 -284 -137 -562
-200 -885 -200 -1033 -1 -1907 789 -2012 1819 -7 67 -11 566 -11 1435 l1 1331
157 106 157 107 6 -1482 c5 -1286 8 -1492 21 -1561z m-549 1343 c3 -1324 3
-1334 25 -1448 91 -478 299 -877 627 -1205 332 -333 734 -541 1220 -630 140
-26 478 -32 646 -10 901 114 1657 777 1885 1655 14 52 35 149 47 215 21 119
21 136 25 1438 1 725 6 1317 11 1315 4 -2 76 -50 159 -107 l152 -105 0 -1191
c0 -1010 -2 -1210 -15 -1315 -70 -565 -328 -1091 -735 -1498 -204 -204 -420
-358 -685 -488 -258 -126 -491 -198 -780 -241 -167 -24 -534 -24 -695 0 -579
89 -1066 332 -1465 732 -375 375 -620 845 -714 1372 -38 212 -42 361 -39 1518
l3 1110 155 107 c85 59 158 107 162 108 4 0 9 -600 11 -1332z m1080 -1235 c23
-215 144 -465 308 -638 215 -226 483 -349 790 -362 270 -11 488 48 708 194
103 68 248 211 314 311 96 144 173 343 192 497 l7 55 159 0 159 0 0 -40 c0
-21 -9 -84 -19 -138 -103 -531 -483 -961 -1000 -1132 -157 -52 -284 -72 -461
-72 -241 0 -429 41 -636 141 -198 96 -361 218 -490 369 -203 237 -315 495
-359 825 l-6 47 164 0 164 0 6 -57z m556 10 c53 -209 239 -393 456 -448 76
-19 214 -19 290 0 33 8 94 32 135 52 140 68 275 233 314 384 l13 54 171 3 172
2 -6 -32 c-48 -276 -189 -502 -407 -650 -423 -287 -994 -193 -1304 216 -63 83
-138 243 -162 346 -32 132 -47 120 148 120 l169 0 11 -47z m1006 25 c-16 -53
-63 -126 -110 -173 -167 -165 -428 -163 -596 4 -48 49 -109 149 -109 180 0 8
128 11 411 11 l410 0 -6 -22z"/>
</g>
</svg>
